<?xml version="1.0" encoding="utf-8"?>
<!-- Generator: Adobe Illustrator 22.0.1, SVG Export Plug-In . SVG Version: 6.00 Build 0)  -->
<svg version="1.1" id="Camada_1" xmlns="http://www.w3.org/2000/svg" xmlns:xlink="http://www.w3.org/1999/xlink" x="0px" y="0px"
	 viewBox="0 0 288.8 52" style="enable-background:new 0 0 288.8 52;" xml:space="preserve">
<style type="text/css">
	.st0{fill:#9D9D9C;}
	.st1{fill-rule:evenodd;clip-rule:evenodd;fill:#951B81;}
	.st2{fill-rule:evenodd;clip-rule:evenodd;fill:#00A0DD;}
	.st3{fill-rule:evenodd;clip-rule:evenodd;fill:#9D9D9C;}
	.st4{fill-rule:evenodd;clip-rule:evenodd;fill:#9A999A;}
</style>
<g>
	<g>
		<path class="st0" d="M168.8,37.5l-7.7-11.4H155v11.4h-2.3V10h10.3c4.7,0,8.4,3,8.4,8c0,5-3.5,7.8-7.6,7.9l8,11.5H168.8z
			 M168.8,18.1c0-3.5-2.5-5.9-6.1-5.9H155V24h7.7C166.4,24,168.8,21.5,168.8,18.1z"/>
		<path class="st0" d="M188.9,37.5v-2.3c-1.8,1.9-4,2.8-6.8,2.8c-3.4,0-7-2.4-7-6.6c0-4.3,3.5-6.6,7-6.6c2.8,0,5,0.9,6.8,2.8v-4
			c0-3-2.4-4.6-5.4-4.6c-2.5,0-4.4,0.9-6.2,2.9l-1.2-1.5c2.1-2.2,4.4-3.3,7.7-3.3c4,0,7.3,1.9,7.3,6.4v14H188.9z M188.9,33.6v-4.4
			c-1.4-1.8-3.6-2.8-6-2.8c-3.3,0-5.4,2.1-5.4,4.9c0,2.8,2.1,4.9,5.4,4.9C185.3,36.3,187.5,35.4,188.9,33.6z"/>
		<path class="st0" d="M211.2,37.5V24.1c0-3.8-1.9-5-4.8-5c-2.6,0-5.2,1.6-6.5,3.4v15h-2.1V17.6h2.1v3c1.4-1.7,4.3-3.5,7.2-3.5
			c4,0,6.3,2,6.3,6.5v13.9H211.2z"/>
		<path class="st0" d="M233.8,37.5l-8-9.5l-3.7,3.5v6H220V10h2.1v19l11.8-11.4h2.8l-9.3,9l9.2,10.9H233.8z"/>
		<path class="st0" d="M240.2,12.8c0-0.9,0.8-1.6,1.6-1.6c0.9,0,1.6,0.7,1.6,1.6c0,0.9-0.7,1.6-1.6,1.6
			C241,14.5,240.2,13.8,240.2,12.8z M240.8,37.5V17.6h2.1v19.9H240.8z"/>
		<path class="st0" d="M263.1,37.5V24.1c0-3.8-1.9-5-4.8-5c-2.6,0-5.2,1.6-6.5,3.4v15h-2.1V17.6h2.1v3c1.4-1.7,4.3-3.5,7.2-3.5
			c4,0,6.3,2,6.3,6.5v13.9H263.1z"/>
		<path class="st0" d="M271.9,42.6l1.2-1.6c1.7,2.1,3.6,2.8,6.6,2.8c3.6,0,6.8-1.8,6.8-6.4v-3.1c-1.4,2-4,3.7-6.9,3.7
			c-5.3,0-8.9-4-8.9-10.4c0-6.3,3.6-10.4,8.9-10.4c2.8,0,5.3,1.4,6.9,3.7v-3.2h2.2v19.7c0,6.1-4.1,8.3-9,8.3
			C276.4,45.6,274.3,45,271.9,42.6z M286.6,32.4v-9.7c-1.2-1.9-3.8-3.6-6.6-3.6c-4.4,0-7,3.7-7,8.5c0,4.8,2.6,8.5,7,8.5
			C282.8,36,285.4,34.3,286.6,32.4z"/>
	</g>
	<g>
		<g>
			<g>
				<polygon class="st1" points="20.6,8.9 20.6,37.9 10,37.9 10,8.9 0,8.9 0,0 30.5,0 30.5,8.9 				"/>
			</g>
			<g>
				<path class="st2" d="M94.5,37.9H84.1l-2-11c-0.8-4.6-1.7-10.1-1.8-12.5h-0.1c-0.1,1.9-0.9,7.5-1.9,12.5l-2,11H65.7L56.5,0h10.3
					l2.1,10.2c1.8,8.5,2.1,12.8,2.2,14.2h0.1c0.2-3,0.9-8.3,1.9-13.9L75,0h10.8l2.4,12.7c0.5,2.9,1.3,7.1,1.5,11.7h0.1
					c0.2-3.4,1.4-11.3,2.1-15L93.9,0h10.4L94.5,37.9z"/>
			</g>
			<g>
				<path class="st2" d="M111.7,26.3c-4-0.1-4.8,1.5-4.8,3.1c0,1.6,1,2.7,2.6,2.7c0.8,0,1.9-0.5,2.2-0.9V26.3L111.7,26.3z
					 M117.8,39.1c-1.4-0.4-3.1-1.9-3.5-2.8c-1.4,1.1-3.7,2.3-7,2.3c-7,0-9.6-4.1-9.6-9.1c0-5.3,4.6-9.1,12.5-9.1
					c0.4,0,1.3,0,1.6,0.1v-1.7c0-1.6-0.2-2.6-2.3-2.6c-3.2,0-5.6,1.1-8,2.9L98,13.1c3.5-2.1,8-4,12.6-4c5.3,0,9.1,1.8,10.1,5.1
					c0.4,1.3,0.4,2.3,0.4,4.4l-0.1,9.7c0,2.3,0.2,4.2,2.2,5.5L117.8,39.1z"/>
			</g>
			<g>
				<path class="st1" d="M31.6,17.4c-2.3,0-3.9,1.6-3.9,6.4c0,4.9,1.6,6.7,3.9,6.7c2.3,0,3.9-1.9,3.9-6.7
					C35.6,19,33.9,17.4,31.6,17.4L31.6,17.4z M31.6,38.6c-8.9,0-13-6.3-13-14.7c0-8.6,4.7-14.5,13-14.5c8.9,0,13,6,13,14.5
					C44.6,32.4,39.9,38.6,31.6,38.6z"/>
			</g>
			<g>
				<path class="st1" d="M52.9,17.3c-1.6,0-2.7,1.1-2.7,1.1v11.7c0,0,0.7,0.3,1.6,0.3c3.5,0,4.9-2.5,4.9-6.6
					C56.7,19.2,56,17.3,52.9,17.3L52.9,17.3z M51.7,38.1c-0.7,0-1.5-0.2-1.5-0.2v11.4l-9.3,1.1V17.8l-1-7.4l8.8-1.1l0.4,2.8h0.1
					c0,0,2.8-2.9,6.9-2.9c7.3,0,9.9,5.5,9.9,13.4C66,32.9,60.1,38.1,51.7,38.1z"/>
			</g>
			<g>
				<path class="st2" d="M146.6,9.8H137l-5.6,20.3h-0.1l-5.5-20.7l-0.1,0l0,0l-9.7,0.7l10.3,27.7c-2,3.4-4.8,5-8.4,5.4l1.6,7.7
					c11.7-1.1,11.7-2.7,17.6-16.9L146.6,9.8z"/>
			</g>
		</g>
		<g>
			<polygon class="st3" points="57,43.4 60.7,43.4 60.7,44.3 58.1,44.3 58.1,46.2 60.5,46.2 60.5,47.1 58.1,47.1 58.1,49.3 
				60.8,49.3 60.8,50.3 57,50.3 			"/>
		</g>
		<g>
			<path class="st3" d="M61.5,45.1h1v0.6h0c0.3-0.5,0.8-0.7,1.3-0.7c0.8,0,1.3,0.4,1.3,1.4v3.9h-1v-3.6c0-0.7-0.2-0.9-0.7-0.9
				c-0.4,0-0.8,0.3-0.8,1v3.5h-1V45.1z"/>
		</g>
		<g>
			<path class="st3" d="M68,49.4c0.8,0,0.9-1,0.9-1.8c0-0.8-0.1-1.8-0.8-1.8c-0.8,0-0.9,0.8-0.9,1.7C67.2,48.4,67.2,49.4,68,49.4
				L68,49.4z M67.2,50.7c0,0.3,0.3,0.6,0.8,0.6c0.5,0,0.9-0.4,0.9-1v-0.8h0c-0.2,0.5-0.7,0.7-1.2,0.7c-1.2,0-1.6-1.2-1.6-2.6
				c0-1.1,0.2-2.7,1.7-2.7c0.6,0,1,0.4,1.1,0.8h0v-0.6h1V50c0,1.3-0.5,2-1.9,2c-1.5,0-1.7-0.9-1.7-1.3H67.2z"/>
		</g>
		<g>
			<rect x="70.9" y="43.4" class="st3" width="1" height="6.9"/>
		</g>
		<g>
			<path class="st3" d="M73,45.1h1v5.2h-1V45.1L73,45.1z M73,43.3h1v1h-1V43.3z"/>
		</g>
		<g>
			<path class="st3" d="M77.4,46.6v-0.1c0-0.4-0.1-0.8-0.7-0.8c-0.4,0-0.7,0.2-0.7,0.7c0,0.4,0.2,0.6,0.7,0.8l0.7,0.2
				c0.8,0.3,1.1,0.7,1.1,1.5c0,1.1-0.8,1.6-1.9,1.6c-1.3,0-1.7-0.6-1.7-1.6v-0.2h0.9v0.2c0,0.6,0.2,0.9,0.8,0.9
				c0.6,0,0.8-0.3,0.8-0.8c0-0.4-0.2-0.6-0.6-0.8l-0.8-0.3c-0.8-0.3-1.1-0.7-1.1-1.5c0-1,0.7-1.4,1.8-1.4c1.3,0,1.6,0.8,1.6,1.4v0.2
				H77.4z"/>
		</g>
		<g>
			<path class="st3" d="M79.2,43.4h1v2.3l0,0c0.3-0.4,0.7-0.7,1.3-0.7c0.8,0,1.3,0.4,1.3,1.4v3.9h-1v-3.6c0-0.7-0.2-0.9-0.7-0.9
				c-0.4,0-0.8,0.3-0.8,1v3.5h-1V43.4z"/>
		</g>
		<g>
			<path class="st3" d="M87.1,48.1v0.2c0,0.8,0.4,1.3,1.1,1.3c0.7,0,1-0.5,1-1c0-0.7-0.4-1-1-1.2l-0.8-0.3c-1-0.4-1.4-0.9-1.4-1.9
				c0-1.3,0.8-2,2.1-2c1.8,0,1.9,1.1,1.9,1.8l0,0.2h-1.1v-0.1c0-0.6-0.3-1-1-1c-0.5,0-0.9,0.3-0.9,1c0,0.6,0.3,0.9,1,1.2l0.7,0.3
				c1,0.3,1.4,0.9,1.4,1.8c0,1.5-0.9,2.1-2.3,2.1c-1.7,0-2.1-1.1-2.1-2.1v-0.2H87.1z"/>
		</g>
		<g>
			<path class="st3" d="M94.7,48.4c-0.1,1.2-0.5,2-1.8,2c-1.5,0-1.9-1.1-1.9-2.7c0-1.6,0.4-2.7,1.9-2.7c1.6,0,1.8,1.2,1.8,1.9h-1
				c0-0.5-0.1-1.1-0.7-1.1c-0.8,0-0.9,0.8-0.9,2s0.1,2,0.9,2c0.6,0,0.8-0.5,0.8-1.3H94.7z"/>
		</g>
		<g>
			<path class="st4" d="M95.4,43.4h1v2.3l0,0c0.3-0.4,0.7-0.7,1.3-0.7c0.8,0,1.3,0.4,1.3,1.4v3.9h-1v-3.6c0-0.7-0.2-0.9-0.7-0.9
				c-0.4,0-0.8,0.3-0.8,1v3.5h-1V43.4z"/>
		</g>
		<g>
			<path class="st3" d="M101.8,49.6c0.8,0,0.9-0.6,0.9-2c0-1.1-0.1-2-0.9-2c-0.8,0-0.9,0.8-0.9,2C100.9,49,101,49.6,101.8,49.6
				L101.8,49.6z M101.8,44.9c1.5,0,1.9,1.1,1.9,2.7c0,1.6-0.5,2.7-1.9,2.7c-1.4,0-1.9-1.1-1.9-2.7C99.9,46.1,100.3,44.9,101.8,44.9z
				"/>
		</g>
		<g>
			<path class="st3" d="M106.3,49.6c0.8,0,0.9-0.6,0.9-2c0-1.1-0.1-2-0.9-2c-0.8,0-0.9,0.8-0.9,2C105.4,49,105.5,49.6,106.3,49.6
				L106.3,49.6z M106.3,44.9c1.5,0,1.9,1.1,1.9,2.7c0,1.6-0.5,2.7-1.9,2.7c-1.4,0-1.9-1.1-1.9-2.7C104.3,46.1,104.8,44.9,106.3,44.9
				z"/>
		</g>
		<g>
			<rect x="109.1" y="43.4" class="st3" width="1" height="6.9"/>
		</g>
		<g>
			<path class="st3" d="M139.5,43.9c1,0,1.9,0.3,2.6,1c0.7,0.7,1.1,1.5,1.1,2.5c0,1-0.4,1.8-1.1,2.5c-0.7,0.7-1.6,1-2.6,1
				c-1,0-1.9-0.3-2.6-1c-0.7-0.7-1.1-1.5-1.1-2.5c0-1,0.4-1.8,1.1-2.5C137.6,44.2,138.5,43.9,139.5,43.9L139.5,43.9z M142.4,47.4
				c0-0.8-0.3-1.5-0.8-2.1c-0.6-0.6-1.3-0.9-2.1-0.9c-0.8,0-1.5,0.3-2.1,0.9c-0.6,0.6-0.8,1.3-0.8,2.1c0,0.8,0.3,1.5,0.8,2.1
				c0.6,0.6,1.3,0.9,2.1,0.9c0.8,0,1.5-0.3,2.1-0.9C142.1,49,142.4,48.3,142.4,47.4L142.4,47.4z M137.9,49.5h0.3h0.3l0,0v-1.8l0,0
				l0.7,0l0,0l1.1,1.8l0,0h0.4h0.4l0,0l-1.2-1.8l0,0c0.3,0,0.5-0.1,0.7-0.3c0.3-0.2,0.4-0.5,0.4-0.9c0-0.3-0.1-0.6-0.4-0.8
				c-0.3-0.2-0.6-0.3-1-0.3h-1.3l0,0h-0.3l0,0V49.5L137.9,49.5z M138.6,47.2L138.6,47.2h0.9c0.3,0,0.5-0.1,0.7-0.2
				c0.1-0.1,0.2-0.3,0.2-0.5c0-0.2-0.1-0.4-0.2-0.5c-0.1-0.1-0.4-0.1-0.7-0.1h-0.9l0,0V47.2z"/>
		</g>
	</g>
</g>
</svg>
