<?xml version="1.0" encoding="utf-8"?>
<!-- Generator: Adobe Illustrator 22.0.1, SVG Export Plug-In . SVG Version: 6.00 Build 0)  -->
<svg version="1.1" id="Camada_1" xmlns="http://www.w3.org/2000/svg" xmlns:xlink="http://www.w3.org/1999/xlink" x="0px" y="0px"
	 viewBox="0 0 94.9 91.9" style="enable-background:new 0 0 94.9 91.9;" xml:space="preserve">
<path class="like_svg" d="M92.1,35.7c-2.9-3.3-7.4-4-11-4.2c-3.4-0.2-8.1-0.1-14,0.4c1.4-6,3.7-15.5,4.6-20.2c1-5.2-2-9.8-7.1-11.3
	C59.7-1,54.9,1.1,53.2,5.3l-0.6,1.4c-2.7,7-10,25.5-21.9,28.9c0,0,0,0-0.1,0c-2-2.2-4.8-3.5-8-3.5H10.8C4.8,32.1,0,36.9,0,42.9V79
	c0,6,4.8,10.8,10.8,10.8h11.9c3.2,0,6.1-1.4,8.1-3.6c5.9,1.2,28.9,5.7,43.4,5.7c5.3,0,16.3,0,17.6-12c0.6-5,2.4-21.9,3-31.4
	C95.3,42.3,94.5,38.4,92.1,35.7z M22.7,83.6H10.8c-2.6,0-4.7-2.1-4.7-4.7V42.8c0-2.6,2.1-4.7,4.7-4.7h11.9c2.6,0,4.7,2.1,4.7,4.7
	v36.1C27.4,81.5,25.3,83.6,22.7,83.6z M88.8,47.9c-0.7,9.5-2.5,26.3-3,31.2c-0.5,4.5-2.3,6.5-11.6,6.5c-12.8,0-33.4-3.8-40.8-5.3
	c0.1-0.5,0.1-1,0.1-1.5v-36c0-0.6-0.1-1.2-0.2-1.7C47.5,36.3,55,17.2,58.2,8.9l0.5-1.3c0.7-1.8,2.9-1.7,4-1.3
	c0.8,0.2,3.4,1.2,2.8,4.3c-1.1,6-4.5,19.9-5.5,24.1c-0.2,1,0,2,0.7,2.7c0.6,0.7,1.6,1.1,2.6,1c5.7-0.6,10.4-0.9,14-0.9
	c1.2,0,2.3,0,3.2,0.1c3.6,0.2,5.7,0.9,6.8,2.1C88.7,41.1,89.1,43.8,88.8,47.9z"/>
</svg>
